<svg xmlns:svg="http://www.w3.org/2000/svg" width="44mm" height="49mm" viewBox="0 0 44 49">
  <defs />
  <g id="layer1">
    <g transform="translate(-23.374643,0.83345066)">
      <path id="hexagonplate"
         style="color:#000000;fill:#ffffff;fill-rule:evenodd;stroke-linejoin:round;-inkscape-stroke:none"
         d="M 42.568003,-0.12582096 26.18519,9.313632 c -1.722044,0.992165 -2.810547,2.870067 -2.810547,4.857421 V 33.04996 c 0,1.9874 1.088483,3.865259 2.810547,4.857422 l 16.382813,9.439453 c 1.722036,0.992097 3.89122,0.992054 5.613281,0 l 16.38477,-9.439453 c 1.72211,-0.992189 2.80859,-2.87013 2.80859,-4.857422 V 14.171053 c 0,-1.987246 -1.0865,-3.86523 -2.80859,-4.857421 l -16.38477,-9.43945296 c -1.817612,-0.96195644 -3.968863,-0.92487394 -5.613281,0 z"
          />
    </g>
    <path
       d="M 23.808236,2.4407905 40.191847,11.879717 C 41.341884,12.542317 42,13.679974 42,15.004973 v 18.877786 c 0,1.32509 -0.658116,2.46276 -1.808153,3.12535 l -16.383611,9.43893 c -1.150003,0.6625 -2.466469,0.6625 -3.616405,0 L 3.808253,37.008109 C 2.658217,36.345519 2,35.207849 2,33.882759 V 15.004973 C 2,13.679974 2.658217,12.542317 3.808253,11.879717 L 20.191831,2.4407905 c 1.149936,-0.6625 2.466402,-0.6625 3.616405,0 z m -1.291537,2.232316 c -0.350386,-0.201886 -0.682911,-0.201886 -1.033297,0 L 5.099791,14.112067 C 4.749305,14.314019 4.583209,14.6012 4.583209,15.004973 v 18.877786 c 0,0.40387 0.166096,0.69106 0.516582,0.89301 l 16.383611,9.43896 c 0.350386,0.20189 0.682911,0.20189 1.033297,0 l 16.383577,-9.43896 c 0.350385,-0.20195 0.516615,-0.48914 0.516615,-0.89301 V 15.004973 c 0,-0.403773 -0.16623,-0.690954 -0.516615,-0.892906 z"
       style="fill:#9c0b00;fill-opacity:1;fill-rule:evenodd;stroke:none;stroke-width:0.334716"
       id="hexagonborder" />
    <path
       d="m 9.749526,15.897779 v 14.89309 c 0.028418,0.653484 0.356411,0.997646 0.885028,1.20932 0.605778,0.182929 1.115654,-0.169048 1.392122,-0.60655 L 24.951534,9.054797 27.181509,10.333554 14.254005,32.676939 C 13.34321,34.226317 11.628368,34.902393 9.978619,34.486649 8.2507144,34.001842 7.1642974,32.372934 7.16632,30.790349 V 15.897645 c 0.861009,1.67e-4 1.722439,-2.95e-4 2.583206,1.34e-4 z"
       style="fill:#6e6e6e;fill-opacity:1;fill-rule:nonzero;stroke:none;stroke-width:0.334716"
       id="signv" />
    <path
       d="M 16.818487,38.553759 29.784659,16.143632 c 0.872952,-1.577903 2.637451,-2.14623 4.236825,-1.742992 1.727956,0.484789 2.790841,2.17227 2.812198,3.696307 v 14.893102 c -0.0032,0.911748 -0.768736,1.272513 -1.405529,1.28379 l -8.597126,-1.1e-4 v -2.56754 l 7.419546,7e-5 v -13.6093 c -0.0284,-0.653539 -0.356358,-0.997556 -0.885027,-1.20931 -0.547991,-0.114568 -1.093677,0.104467 -1.350912,0.534602 L 19.048563,39.832409 c -0.743342,-0.426115 -1.486879,-0.852813 -2.230076,-1.27865 z"
       style="fill:#6e6e6e;fill-opacity:1;fill-rule:nonzero;stroke:none;stroke-width:0.334716"
       id="signa" />
  </g>
</svg>
