<?xml version="1.0" encoding="UTF-8" standalone="no"?>
<!-- Created with Inkscape (http://www.inkscape.org/) -->

<svg
   width="210mm"
   height="297mm"
   viewBox="0 0 210 297"
   version="1.1"
   id="svg5"
   inkscape:version="1.1.1 (3bf5ae0d25, 2021-09-20)"
   sodipodi:docname="vagensas_vector.svg"
   xmlns:inkscape="http://www.inkscape.org/namespaces/inkscape"
   xmlns:sodipodi="http://sodipodi.sourceforge.net/DTD/sodipodi-0.dtd"
   xmlns="http://www.w3.org/2000/svg"
   xmlns:svg="http://www.w3.org/2000/svg">
  <sodipodi:namedview
     id="namedview7"
     pagecolor="#505050"
     bordercolor="#eeeeee"
     borderopacity="1"
     inkscape:pageshadow="0"
     inkscape:pageopacity="0"
     inkscape:pagecheckerboard="0"
     inkscape:document-units="mm"
     showgrid="false"
     inkscape:zoom="0.74118967"
     inkscape:cx="397.33419"
     inkscape:cy="482.33268"
     inkscape:window-width="1920"
     inkscape:window-height="1017"
     inkscape:window-x="1432"
     inkscape:window-y="-8"
     inkscape:window-maximized="1"
     inkscape:current-layer="layer1" />
  <defs
     id="defs2" />
  <g
     inkscape:label="Layer 1"
     inkscape:groupmode="layer"
     id="layer1">
    <path
       d="m 22.118507,181.48452 h 16.383811 c 0.966399,0 1.75708,-0.79068 1.75708,-1.75719 v -4.37959 H 20.361427 v 4.37959 c 0,0.96651 0.790681,1.75719 1.75708,1.75719 z m 8.191888,-10.83148 c 0.551921,0 0.999419,0.44761 0.999419,0.99949 0,0.55189 -0.447498,0.99939 -0.999419,0.99939 -0.551886,0 -0.99949,-0.4475 -0.99949,-0.99939 0,-0.55188 0.447604,-0.99949 0.99949,-0.99949 z m 0,6.67149 c 0.551921,0 0.999419,0.4475 0.999419,0.99942 0,0.55188 -0.447498,0.99949 -0.999419,0.99949 -0.551886,0 -0.99949,-0.44761 -0.99949,-0.99949 0,-0.55192 0.447604,-0.99942 0.99949,-0.99942 z m 0,-13.63349 c 0.551921,0 0.999419,0.4475 0.999419,0.99939 0,0.55192 -0.447498,0.99949 -0.999419,0.99949 -0.551886,0 -0.99949,-0.44757 -0.99949,-0.99949 0,-0.55189 0.447604,-0.99939 0.99949,-0.99939 z m 49.73521,0 c 0.55192,0 0.999419,0.4475 0.999419,0.99939 0,0.55192 -0.447499,0.99949 -0.999419,0.99949 -0.551886,0 -0.99949,-0.44757 -0.99949,-0.99949 0,-0.55189 0.447604,-0.99939 0.99949,-0.99939 z m 0,13.63349 c 0.55192,0 0.999419,0.4475 0.999419,0.99942 0,0.55188 -0.447499,0.99949 -0.999419,0.99949 -0.551886,0 -0.99949,-0.44761 -0.99949,-0.99949 0,-0.55192 0.447604,-0.99942 0.99949,-0.99942 z m 0,-6.67149 c 0.55192,0 0.999419,0.44761 0.999419,0.99949 0,0.55189 -0.447499,0.99939 -0.999419,0.99939 -0.551886,0 -0.99949,-0.4475 -0.99949,-0.99939 0,-0.55188 0.447604,-0.99949 0.99949,-0.99949 z m -39.786207,3.3001 v -4.64919 H 20.361427 v 4.64919 z m 0,-6.04379 v -4.56572 c 0,-0.9664 -0.790681,-1.75719 -1.75708,-1.75719 H 22.118507 c -0.966399,0 -1.75708,0.79079 -1.75708,1.75719 v 4.56572 z m 31.696907,13.57517 h 16.383811 c 0.966399,0 1.75708,-0.79068 1.75708,-1.75719 v -4.37959 H 70.199224 v 4.37959 c 0,0.96651 0.790681,1.75719 1.757081,1.75719 z m 18.140891,-7.53138 v -4.64919 H 70.199224 v 4.64919 z m 0,-6.04379 v -4.56572 c 0,-0.9664 -0.790681,-1.75719 -1.75708,-1.75719 H 71.956305 c -0.9664,0 -1.757081,0.79079 -1.757081,1.75719 v 4.56572 z"
       style="fill:#006b2b;fill-opacity:1;fill-rule:evenodd;stroke:none;stroke-width:0.352778"
       id="path832" />
    <path
       d="m 47.037494,181.13305 c -1.936186,0 -3.514196,-1.57801 -3.514196,-3.51423 0,-4.90259 0,-10.21028 0,-14.27509 0,-0.9664 0.790716,-1.75711 1.757116,-1.75711 5.461105,0 14.436689,0 19.898007,0 0.966399,0 1.75708,0.79071 1.75708,1.75711 0,3.68561 0,9.77159 0,14.27509 0,1.93622 -1.578081,3.51423 -3.514196,3.51423 -5.461388,0 -10.922494,0 -16.383811,0 z m 0.317218,-17.52092 c 0.736706,0 1.334099,0.59739 1.334099,1.3341 0,0.73681 -0.597393,1.3342 -1.334099,1.3342 -0.736812,0 -1.334206,-0.59739 -1.334206,-1.3342 0,-0.73671 0.597394,-1.3341 1.334206,-1.3341 z m 5.206082,0 c 0.736812,0 1.334206,0.59739 1.334206,1.3341 0,0.73681 -0.597394,1.3342 -1.334206,1.3342 -0.73667,0 -1.334099,-0.59739 -1.334099,-1.3342 0,-0.73671 0.597429,-1.3341 1.334099,-1.3341 z m 5.206013,0 c 0.736811,0 1.334205,0.59739 1.334205,1.3341 0,0.73681 -0.597394,1.3342 -1.334205,1.3342 -0.736706,0 -1.3341,-0.59739 -1.3341,-1.3342 0,-0.73671 0.597394,-1.3341 1.3341,-1.3341 z m 5.206188,0 c 0.736812,0 1.334206,0.59739 1.334206,1.3341 0,0.73681 -0.597394,1.3342 -1.334206,1.3342 -0.736671,0 -1.33417,-0.59739 -1.33417,-1.3342 0,-0.73671 0.597499,-1.3341 1.33417,-1.3341 z m -16.090794,5.67559 H 63.57621 c 0.289983,0 0.527191,0.23922 0.527191,0.52723 v 0.27827 c 0,0.28801 -0.239183,0.52712 -0.527191,0.52712 H 46.882201 c -0.288008,0 -0.527191,-0.23721 -0.527191,-0.52712 v -0.27827 c 0,-0.28992 0.237208,-0.52723 0.527191,-0.52723 z m 0.155293,10.08821 c 5.461106,0 10.922423,0 16.383811,0 0.966399,0 1.757116,-0.79068 1.757116,-1.75711 0,-5.46118 0,-2.3126 0,-7.77389 0,-0.9664 -0.790717,-1.75711 -1.757116,-1.75711 -5.461388,0 -10.922705,0 -16.383811,0 -0.966399,0 -1.75708,0.79071 -1.75708,1.75711 0,5.46129 0,2.31271 0,7.77389 0,0.96643 0.790681,1.75711 1.75708,1.75711"
       style="fill:#006b2b;fill-opacity:1;fill-rule:evenodd;stroke:none;stroke-width:0.352778"
       id="path834" />
    <path
       d="m 52.976896,130.54094 h 4.504901 c 0.290019,0 0.527227,0.23721 0.527227,0.52708 v 12.18082 l 9.356971,5.94039 c 0.42351,0.26889 0.249908,0.78479 -0.121073,0.78479 H 43.213806 c -0.498792,0 -0.470499,-0.563 -0.225813,-0.71829 l 9.461818,-6.00689 v -12.18082 c 0,-0.28987 0.237207,-0.52708 0.527085,-0.52708 z m 2.252521,16.28641 c 0.551886,0 0.999384,0.44757 0.999384,0.99949 0,0.55188 -0.447498,0.99938 -0.999384,0.99938 -0.551921,0 -0.999525,-0.4475 -0.999525,-0.99938 0,-0.55192 0.447604,-0.99949 0.999525,-0.99949 z m 5.798503,0 c 0.551885,0 0.999384,0.44757 0.999384,0.99949 0,0.55188 -0.447499,0.99938 -0.999384,0.99938 -0.551921,0 -0.999526,-0.4475 -0.999526,-0.99938 0,-0.55192 0.447605,-0.99949 0.999526,-0.99949 z m -11.421322,0 c 0.551921,0 0.99942,0.44757 0.99942,0.99949 0,0.55188 -0.447499,0.99938 -0.99942,0.99938 -0.551885,0 -0.99949,-0.4475 -0.99949,-0.99938 0,-0.55192 0.447605,-0.99949 0.99949,-0.99949"
       style="fill:#006b2b;fill-opacity:1;fill-rule:evenodd;stroke:none;stroke-width:0.352778"
       id="path836" />
    <path
       d="m 20.361215,187.44202 h 4.244199 v 0.30272 h -1.410088 l 2.302898,5.59378 h 0.02699 l 2.131096,-5.59378 h -1.4351 v -0.30272 h 3.143497 v 0.30272 h -1.355796 l -2.980902,7.81219 H 24.84961 l -3.297202,-7.81219 h -1.19119 z m 13.096205,5.45853 h -2.820494 l -0.908509,2.17198 h 1.642887 v 0.30081 h -3.217792 v -0.30081 h 1.224703 l 3.238394,-7.81431 h 0.203306 l 3.105397,7.81431 h 1.192882 v 0.30081 h -4.230299 v -0.30081 h 1.434924 z m -2.696105,-0.30082 h 2.576301 l -1.252008,-3.17549 h -0.02491 z m 12.621401,0.1191 h -1.50502 v -0.30289 h 4.596518 v 0.30289 h -1.285911 c 0,1.01329 -0.363678,1.738 -1.091494,2.17809 -0.727604,0.44002 -1.489216,0.66001 -2.284589,0.66001 -1.159616,0 -2.126721,-0.41381 -2.899621,-1.24139 -0.772795,-0.8297 -1.159405,-1.7967 -1.159405,-2.90491 0,-1.12441 0.3955,-2.09529 1.186604,-2.91889 0.788599,-0.82162 1.773802,-1.23352 2.951409,-1.23352 0.610094,0 1.193306,0.15953 1.749108,0.47442 0.167287,0.0949 0.284585,0.14128 0.350308,0.14128 0.142381,0 0.282575,-0.11299 0.424674,-0.337 h 0.296121 l 0.0926,2.15381 h -0.336515 c -0.366289,-1.4211 -1.233981,-2.12961 -2.601207,-2.12961 -0.711976,0 -1.229289,0.14322 -1.556985,0.42792 -0.325614,0.28659 -0.526591,0.64798 -0.599016,1.082 -0.07218,0.436 -0.108374,1.0578 -0.108374,1.86729 0,1.4533 0.05429,2.41829 0.160585,2.89059 0.108197,0.47452 0.329812,0.8298 0.666609,1.068 0.334398,0.23812 0.745772,0.35722 1.231582,0.35722 0.388691,0 0.734519,-0.0706 1.034909,-0.21191 0.302789,-0.14118 0.492689,-0.35331 0.569489,-0.63588 0.0768,-0.28251 0.117616,-0.70253 0.117616,-1.26161 z m 7.050793,-4.97409 v 3.3995 h 0.799994 c 0.282399,0 0.522006,-0.0242 0.718503,-0.0727 0.196815,-0.0504 0.372992,-0.18362 0.529096,-0.39981 0.158115,-0.2178 0.246098,-0.5571 0.268817,-1.0173 h 0.343499 v 3.35911 h -0.343499 c -0.03619,-0.63792 -0.174096,-1.05992 -0.413597,-1.2616 -0.241829,-0.20401 -0.608013,-0.30491 -1.102819,-0.30491 h -0.799994 v 3.6255 h 1.805587 c 1.026019,0 1.733409,-0.19378 2.128908,-0.57728 0.395394,-0.38563 0.63052,-0.97713 0.704991,-1.77642 h 0.338914 l -0.08569,2.65451 h -7.873506 v -0.30081 h 1.4103 v -7.32779 h -1.4103 v -0.30272 h 7.547892 l 0.151519,2.11751 h -0.336727 c -0.115288,-0.64191 -0.350202,-1.10631 -0.70739,-1.38881 -0.359198,-0.2847 -0.953593,-0.42598 -1.78749,-0.42598 z m 14.185194,0 v 7.81219 h -0.271286 l -5.846092,-7.84849 h -0.02491 v 7.36409 h 1.502798 v 0.30081 H 56.81981 v -0.30081 h 1.31759 v -7.32779 h -1.410194 v -0.30272 h 3.389806 l 4.137801,5.55932 h 0.02709 v -5.2566 h -1.46879 v -0.30272 h 3.150376 v 0.30272 z m 7.972813,-0.39162 0.04078,2.05902 h -0.311891 c -0.440513,-1.23342 -1.220293,-1.85102 -2.336588,-1.85102 -0.619195,0 -1.098409,0.15342 -1.439615,0.45811 -0.343606,0.30491 -0.51301,0.62181 -0.51301,0.9488 0,0.30279 0.142205,0.5613 0.427002,0.7753 0.284904,0.21191 0.804616,0.3774 1.559313,0.49442 0.75491,0.11507 1.328914,0.2564 1.724414,0.42396 0.395393,0.16754 0.727674,0.44814 0.998996,0.83782 0.270898,0.3896 0.406682,0.8377 0.406682,1.34232 0,0.77717 -0.282505,1.42328 -0.849701,1.93999 -0.567407,0.51679 -1.270176,0.77509 -2.108588,0.77509 -0.684706,0 -1.36719,-0.22599 -2.047416,-0.68019 l -0.621383,0.4966 h -0.232904 v -2.21862 H 67.5723 c 0.26222,0.6985 0.62611,1.2233 1.093999,1.57463 0.467713,0.34928 0.978323,0.52479 1.536594,0.52479 0.551427,0 1.057804,-0.1614 1.518709,-0.48652 0.461009,-0.3249 0.69162,-0.73677 0.69162,-1.23327 0,-0.4179 -0.160619,-0.76913 -0.479213,-1.0559 -0.320887,-0.28663 -0.838517,-0.48232 -1.556985,-0.59143 -0.716421,-0.10898 -1.267812,-0.23407 -1.652023,-0.37938 -0.384104,-0.1434 -0.711799,-0.39381 -0.985308,-0.75099 -0.273368,-0.35532 -0.411268,-0.75103 -0.411268,-1.18502 0,-0.59951 0.2395,-1.13439 0.716385,-1.60478 0.474416,-0.47251 1.122998,-0.70863 1.939008,-0.70863 0.684707,0 1.321788,0.19382 1.913996,0.58141 0.162877,-0.13931 0.302895,-0.30081 0.422592,-0.48651 z m 6.926792,5.54743 h -2.8206 l -0.908191,2.17198 h 1.642886 v 0.30081 H 74.2144 v -0.30081 h 1.224703 l 3.238394,-7.81431 h 0.203518 l 3.105079,7.81431 h 1.19313 v 0.30081 h -4.230405 v -0.30081 h 1.434782 z m -2.69621,-0.30082 h 2.576301 l -1.251691,-3.17549 h -0.02519 z m 12.718626,-5.24661 0.04078,2.05902 h -0.311891 c -0.440513,-1.23342 -1.220293,-1.85102 -2.336623,-1.85102 -0.619196,0 -1.098374,0.15342 -1.43958,0.45811 -0.343606,0.30491 -0.512904,0.62181 -0.512904,0.9488 0,0.30279 0.142099,0.5613 0.426896,0.7753 0.284904,0.21191 0.804616,0.3774 1.559313,0.49442 0.75491,0.11507 1.328879,0.2564 1.724378,0.42396 0.395429,0.16754 0.72771,0.44814 0.999032,0.83782 0.270898,0.3896 0.406682,0.8377 0.406682,1.34232 0,0.77717 -0.282505,1.42328 -0.849701,1.93999 -0.567408,0.51679 -1.270211,0.77509 -2.108482,0.77509 -0.684812,0 -1.367331,-0.22599 -2.047416,-0.68019 l -0.621701,0.4966 h -0.232692 v -2.21862 h 0.284692 c 0.262184,0.6985 0.62611,1.2233 1.093999,1.57463 0.467713,0.34928 0.978288,0.52479 1.536594,0.52479 0.551392,0 1.057804,-0.1614 1.518497,-0.48652 0.461221,-0.3249 0.691797,-0.73677 0.691797,-1.23327 0,-0.4179 -0.160584,-0.76913 -0.479178,-1.0559 -0.320922,-0.28663 -0.838518,-0.48232 -1.55702,-0.59143 -0.716386,-0.10898 -1.267777,-0.23407 -1.651988,-0.37938 -0.384104,-0.1434 -0.711799,-0.39381 -0.985308,-0.75099 -0.273403,-0.35532 -0.411304,-0.75103 -0.411304,-1.18502 0,-0.59951 0.239501,-1.13439 0.716421,-1.60478 0.474381,-0.47251 1.122998,-0.70863 1.938973,-0.70863 0.684706,0 1.321929,0.19382 1.914031,0.58141 0.162877,-0.13931 0.302895,-0.30081 0.422592,-0.48651 z"
       style="fill:#6e6e6e;fill-opacity:1;fill-rule:nonzero;stroke:none;stroke-width:0.352778"
       id="path838" />
    <text
       style="font-variant:normal;font-weight:300;font-size:6.98006px;font-family:Klavika;-inkscape-font-specification:Klavika-Light;writing-mode:lr-tb;fill:#6e6e6e;fill-opacity:1;fill-rule:nonzero;stroke:none;stroke-width:0.352778"
       id="text842"
       x="19.5306"
       y="157.75175"><tspan
         x="19.5306 21.122053 24.758665 28.339437 29.930891 33.064938 34.656391 38.237164 41.873775 45.259106 46.850559 48.442013 49.977627 53.523495 56.908829 58.500282"
         y="157.75175"
         sodipodi:role="line"
         id="tspan840"
         style="stroke-width:0.352778">individuali bald</tspan></text>
    <text
       style="font-variant:normal;font-weight:300;font-size:6.98006px;font-family:Klavika;-inkscape-font-specification:Klavika-Light;writing-mode:lr-tb;fill:#6e6e6e;fill-opacity:1;fill-rule:nonzero;stroke:none;stroke-width:0.352778"
       id="text846"
       x="62.081383"
       y="157.75175"><tspan
         x="62.081383 65.717995 67.253609 70.79937 74.1847 79.901367 83.000519 86.546387"
         y="157.75175"
         sodipodi:role="line"
         id="tspan844"
         style="stroke-width:0.352778">ų gamyba</tspan></text>
    <path
       d="m 142.26142,193.64614 c -1.9746,0 -3.58401,-1.6094 -3.58401,-3.58401 0,-4.99981 0,-10.4129 0,-14.55829 0,-0.98562 0.80638,-1.792 1.79201,-1.792 5.56948,0 14.72318,0 20.2929,0 0.98559,0 1.79197,0.80638 1.79197,1.792 0,3.75871 0,9.96548 0,14.55829 0,1.97461 -1.60937,3.58401 -3.58397,3.58401 -5.56973,0 -11.13921,0 -16.7089,0 z m 0.3235,-17.86872 c 0.75138,0 1.36059,0.60932 1.36059,1.3607 0,0.75142 -0.60921,1.3607 -1.36059,1.3607 -0.75142,0 -1.3607,-0.60928 -1.3607,-1.3607 0,-0.75138 0.60928,-1.3607 1.3607,-1.3607 z m 5.30948,0 c 0.75142,0 1.36059,0.60932 1.36059,1.3607 0,0.75142 -0.60917,1.3607 -1.36059,1.3607 -0.75138,0 -1.3607,-0.60928 -1.3607,-1.3607 0,-0.75138 0.60932,-1.3607 1.3607,-1.3607 z m 5.30931,0 c 0.75141,0 1.36059,0.60932 1.36059,1.3607 0,0.75142 -0.60918,1.3607 -1.36059,1.3607 -0.75142,0 -1.3607,-0.60928 -1.3607,-1.3607 0,-0.75138 0.60928,-1.3607 1.3607,-1.3607 z m 5.30951,0 c 0.75138,0 1.3606,0.60932 1.3606,1.3607 0,0.75142 -0.60922,1.3607 -1.3606,1.3607 -0.75141,0 -1.3607,-0.60928 -1.3607,-1.3607 0,-0.75138 0.60929,-1.3607 1.3607,-1.3607 z m -16.4102,5.78841 h 17.02538 c 0.2957,0 0.5376,0.24391 0.5376,0.5376 v 0.28381 c 0,0.29369 -0.24388,0.5376 -0.5376,0.5376 h -17.02538 c -0.29372,0 -0.53763,-0.2419 -0.53763,-0.5376 v -0.28381 c 0,-0.2957 0.2419,-0.5376 0.53763,-0.5376 z m 0.1584,10.28831 c 5.56948,0 11.13917,0 16.7089,0 0.98559,0 1.792,-0.80642 1.792,-1.79201 0,-5.56951 0,-2.35839 0,-7.92811 0,-0.98559 -0.80641,-1.79197 -1.792,-1.79197 -5.56973,0 -11.13942,0 -16.7089,0 -0.98562,0 -1.792,0.80638 -1.792,1.79197 0,5.56972 0,2.3586 0,7.92811 0,0.98559 0.80638,1.79201 1.792,1.79201 z"
       style="fill:none;stroke:#006b2b;stroke-width:0.499992;stroke-linecap:butt;stroke-linejoin:miter;stroke-miterlimit:22.9256;stroke-dasharray:none;stroke-opacity:1"
       id="path848" />
    <path
       d="m 148.31872,129.14764 h 4.5943 c 0.2957,0 0.5376,0.2419 0.5376,0.5376 v 12.42251 l 9.54278,6.05828 c 0.4318,0.27422 0.25481,0.80039 -0.12348,0.80039 h -24.508 c -0.50881,0 -0.47992,-0.57418 -0.23033,-0.73258 l 9.64953,-6.12609 v -12.42251 c 0,-0.2957 0.2419,-0.5376 0.5376,-0.5376 z m 2.29718,16.60959 c 0.56279,0 1.01932,0.4565 1.01932,1.01932 0,0.56289 -0.45653,1.01928 -1.01932,1.01928 -0.56289,0 -1.01928,-0.45639 -1.01928,-1.01928 0,-0.56282 0.45639,-1.01932 1.01928,-1.01932 z m 5.91362,0 c 0.56278,0 1.01917,0.4565 1.01917,1.01932 0,0.56289 -0.45639,1.01928 -1.01917,1.01928 -0.56293,0 -1.01932,-0.45639 -1.01932,-1.01928 0,-0.56282 0.45639,-1.01932 1.01932,-1.01932 z m -11.64802,0 c 0.56289,0 1.01932,0.4565 1.01932,1.01932 0,0.56289 -0.45643,1.01928 -1.01932,1.01928 -0.56289,0 -1.01928,-0.45639 -1.01928,-1.01928 0,-0.56282 0.45639,-1.01932 1.01928,-1.01932 z"
       style="fill:none;stroke:#006b2b;stroke-width:0.499992;stroke-linecap:butt;stroke-linejoin:miter;stroke-miterlimit:22.9256;stroke-dasharray:none;stroke-opacity:1"
       id="path850" />
    <path
       d="m 115.05612,153.25824 h 4.3284 v 0.30868 h -1.43813 l 2.34862,5.70491 h 0.0276 l 2.17332,-5.70491 h -1.4635 v -0.30868 h 3.2059 v 0.30868 h -1.38271 l -3.0402,7.9672 h -0.1819 l -3.3626,-7.9672 h -1.21479 z m 13.35609,5.5668 h -2.87651 l -0.9265,2.21509 h 1.67552 v 0.30681 H 123.003 v -0.30681 h 1.24912 l 3.3026,-7.96939 h 0.20729 l 3.16699,7.96939 h 1.21659 v 0.30681 h -4.31419 v -0.30681 h 1.46332 z m -2.74969,-0.30681 h 2.62749 l -1.27681,-3.2385 h -0.0255 z m 12.87188,0.12149 h -1.5348 v -0.30889 h 4.68771 v 0.30889 h -1.31142 c 0,1.0335 -0.37098,1.7725 -1.11319,2.22141 -0.7421,0.4487 -1.5187,0.67299 -2.32999,0.67299 -1.18251,0 -2.1688,-0.42199 -2.95709,-1.26597 -0.7881,-0.84621 -1.1824,-1.83233 -1.1824,-2.96253 0,-1.1467 0.4034,-2.13698 1.2102,-2.97688 0.8042,-0.83791 1.80898,-1.258 3.00997,-1.258 0.62223,0 1.21691,0.1627 1.78372,0.4839 0.1706,0.0967 0.2903,0.14408 0.3574,0.14408 0.1451,0 0.28811,-0.11529 0.4331,-0.34378 h 0.30191 l 0.0945,2.19671 h -0.34318 c -0.37359,-1.44942 -1.2585,-2.17191 -2.65289,-2.17191 -0.72612,0 -1.25363,0.14598 -1.58792,0.43628 -0.332,0.29231 -0.537,0.66093 -0.6108,1.10352 -0.0737,0.44461 -0.1106,1.0788 -0.1106,1.9044 0,1.48209 0.0554,2.46631 0.1638,2.94799 0.11042,0.4838 0.3363,0.84621 0.67991,1.0892 0.34099,0.24282 0.76048,0.36431 1.25599,0.36431 0.39642,0 0.74902,-0.0721 1.05551,-0.21611 0.30868,-0.14411 0.50239,-0.3604 0.58071,-0.64858 0.0784,-0.28811 0.11988,-0.71642 0.11988,-1.28662 z m 7.19081,-5.0728 v 3.46703 h 0.8159 c 0.2879,0 0.53241,-0.0247 0.73268,-0.0742 0.2007,-0.0514 0.3804,-0.18719 0.53961,-0.40771 0.16129,-0.22218 0.251,-0.56818 0.27411,-1.03748 h 0.35038 v 3.42568 h -0.35038 c -0.0369,-0.65049 -0.17752,-1.08088 -0.42182,-1.28658 -0.24659,-0.2081 -0.61997,-0.3109 -1.12458,-0.3109 h -0.8159 v 3.69739 h 1.84139 c 1.04641,0 1.7678,-0.1977 2.17121,-0.58868 0.40319,-0.39331 0.643,-0.99653 0.71889,-1.81173 h 0.34572 l -0.0874,2.70722 h -8.02979 v -0.30681 h 1.43831 v -7.47321 h -1.43831 v -0.30868 h 7.69769 l 0.15451,2.15949 h -0.34339 c -0.11751,-0.65461 -0.35712,-1.12818 -0.7214,-1.4164 -0.36632,-0.2903 -0.9725,-0.43441 -1.82301,-0.43441 z m 14.46671,0 v 7.9672 h -0.27672 l -5.96209,-8.00428 h -0.0254 v 7.51029 h 1.53261 v 0.30681 h -3.2221 v -0.30681 h 1.34377 v -7.47321 h -1.43828 v -0.30868 h 3.45709 l 4.21999,5.6697 h 0.0276 v -5.36102 h -1.4979 v -0.30868 h 3.21278 v 0.30868 z m 8.13099,-0.39938 0.0416,2.09991 h -0.3181 c -0.44919,-1.25783 -1.2445,-1.88771 -2.38302,-1.88771 -0.63147,0 -1.12017,0.15638 -1.46819,0.46711 -0.35031,0.31097 -0.52299,0.63419 -0.52299,0.96767 0,0.30882 0.14489,0.57242 0.4354,0.79072 0.29051,0.21611 0.82059,0.38488 1.59018,0.50419 0.7699,0.1174 1.3553,0.26151 1.7587,0.4324 0.40323,0.17081 0.74211,0.45702 1.01872,0.85449 0.2764,0.3972 0.4149,0.85422 0.4149,1.36892 0,0.79259 -0.28822,1.45151 -0.8666,1.97849 -0.57869,0.52701 -1.2955,0.79039 -2.15039,0.79039 -0.69843,0 -1.39442,-0.23039 -2.08802,-0.69359 l -0.63391,0.50641 h -0.23738 v -2.26261 h 0.2903 c 0.2674,0.71229 0.63849,1.2476 1.11569,1.60581 0.477,0.3563 0.9978,0.5353 1.56711,0.5353 0.5623,0 1.0788,-0.16471 1.5488,-0.49621 0.47019,-0.3314 0.70531,-0.75138 0.70531,-1.2578 0,-0.42619 -0.16383,-0.7844 -0.48863,-1.07678 -0.32727,-0.29231 -0.85517,-0.49191 -1.58789,-0.60322 -0.7306,-0.11109 -1.293,-0.23868 -1.6849,-0.38689 -0.39169,-0.14622 -0.72591,-0.4016 -1.00471,-0.76591 -0.27887,-0.36231 -0.41949,-0.76588 -0.41949,-1.20851 0,-0.61147 0.24419,-1.1569 0.7306,-1.63668 0.4838,-0.48179 1.14519,-0.7227 1.97739,-0.7227 0.69843,0 1.34811,0.1977 1.95203,0.59298 0.16619,-0.1421 0.309,-0.30677 0.43099,-0.49618 z m 7.0642,5.6575 h -2.87651 l -0.92629,2.21509 h 1.67559 v 0.30681 h -3.28189 v -0.30681 h 1.24901 l 3.3027,-7.96939 h 0.20747 l 3.16682,7.96939 h 1.2168 v 0.30681 h -4.3144 v -0.30681 h 1.46328 z m -2.74962,-0.30681 h 2.62742 l -1.2766,-3.2385 h -0.0256 z m 12.97101,-5.35069 0.0416,2.09991 h -0.3181 c -0.4493,-1.25783 -1.2446,-1.88771 -2.38298,-1.88771 -0.63151,0 -1.12021,0.15638 -1.46819,0.46711 -0.35031,0.31097 -0.5231,0.63419 -0.5231,0.96767 0,0.30882 0.14499,0.57242 0.43547,0.79072 0.29051,0.21611 0.82053,0.38488 1.59022,0.50419 0.76979,0.1174 1.3553,0.26151 1.7587,0.4324 0.40319,0.17081 0.742,0.45702 1.01868,0.85449 0.27633,0.3972 0.4149,0.85422 0.4149,1.36892 0,0.79259 -0.28818,1.45151 -0.8666,1.97849 -0.57869,0.52701 -1.29547,0.79039 -2.15039,0.79039 -0.69839,0 -1.39439,-0.23039 -2.08809,-0.69359 l -0.63401,0.50641 h -0.23721 v -2.26261 h 0.2903 c 0.2673,0.71229 0.63853,1.2476 1.11573,1.60581 0.47699,0.3563 0.99769,0.5353 1.56708,0.5353 0.56232,0 1.07872,-0.16471 1.54862,-0.49621 0.47039,-0.3314 0.70548,-0.75138 0.70548,-1.2578 0,-0.42619 -0.16379,-0.7844 -0.4887,-1.07678 -0.3272,-0.29231 -0.8551,-0.49191 -1.58789,-0.60322 -0.7306,-0.11109 -1.29289,-0.23868 -1.68479,-0.38689 -0.39173,-0.14622 -0.72591,-0.4016 -1.00482,-0.76591 -0.2788,-0.36231 -0.41949,-0.76588 -0.41949,-1.20851 0,-0.61147 0.2443,-1.1569 0.7306,-1.63668 0.48391,-0.48179 1.1453,-0.7227 1.9775,-0.7227 0.69829,0 1.34811,0.1977 1.95199,0.59298 0.16612,-0.1421 0.309,-0.30677 0.43099,-0.49618 z"
       style="fill:#6e6e6e;fill-opacity:1;fill-rule:nonzero;stroke:none;stroke-width:0.352778"
       id="path852" />
    <text
       style="font-variant:normal;font-weight:300;font-size:7.1187px;font-family:Klavika;-inkscape-font-specification:Klavika-Light;writing-mode:lr-tb;fill:#6e6e6e;fill-opacity:1;fill-rule:nonzero;stroke:none;stroke-width:0.352778"
       id="text856"
       x="114.9106"
       y="169.33072"><tspan
         x="114.9106 116.53366 120.24251 123.8944 125.51746 128.71376 130.33682 133.98872 137.69757 141.15013 142.77321 144.39627 145.96239 149.57867 153.03125 154.65431"
         y="169.33072"
         sodipodi:role="line"
         id="tspan854"
         style="stroke-width:0.352778">individuali bald</tspan></text>
    <text
       style="font-variant:normal;font-weight:300;font-size:7.1187px;font-family:Klavika;-inkscape-font-specification:Klavika-Light;writing-mode:lr-tb;fill:#6e6e6e;fill-opacity:1;fill-rule:nonzero;stroke:none;stroke-width:0.352778"
       id="text860"
       x="158.30519"
       y="169.33072"><tspan
         x="158.30519 162.01404 163.58015 167.19629 170.64885 176.47906 179.63977 183.25607"
         y="169.33072"
         sodipodi:role="line"
         id="tspan858"
         style="stroke-width:0.352778">ų gamyba</tspan></text>
    <path
       d="m 116.84791,129.14764 h 16.7089 c 0.98559,0 1.792,0.80638 1.792,1.79201 v 16.2348 c 0,0.98559 -0.80641,1.79197 -1.792,1.79197 h -16.7089 c -0.98559,0 -1.792,-0.80638 -1.792,-1.79197 v -16.2348 c 0,-0.98563 0.80641,-1.79201 1.792,-1.79201 z m 3.73768,16.37108 h 9.2335 c 0.29563,0 0.53763,0.2432 0.53763,0.5376 v 0.32621 c 0,0.29439 -0.2432,0.5376 -0.53763,0.5376 h -9.2335 c -0.29439,0 -0.5376,-0.2419 -0.5376,-0.5376 v -0.32621 c 0,-0.2956 0.24201,-0.5376 0.5376,-0.5376 z"
       style="fill:none;stroke:#006b2b;stroke-width:0.499992;stroke-linecap:butt;stroke-linejoin:miter;stroke-miterlimit:22.9256;stroke-dasharray:none;stroke-opacity:1"
       id="path862" />
    <path
       d="m 116.84791,194.00453 h 16.7089 c 0.98559,0 1.792,-0.80641 1.792,-1.792 0,-10.6311 0,0.35722 0,-10.63019 h -20.2929 c 0,6.82819 0,4.00001 0,10.63019 0,0.98559 0.80641,1.792 1.792,1.792 z m 3.73768,-18.6225 h 9.2335 c 0.29563,0 0.53763,0.2431 0.53763,0.5376 v 0.3261 c 0,0.2944 -0.2432,0.5376 -0.53763,0.5376 h -9.2335 c -0.29439,0 -0.5376,-0.2419 -0.5376,-0.5376 v -0.3261 c 0,-0.2957 0.24201,-0.5376 0.5376,-0.5376 z m 50.82692,0 h 9.23339 c 0.2957,0 0.5376,0.2431 0.5376,0.5376 v 0.3261 c 0,0.2944 -0.24321,0.5376 -0.5376,0.5376 h -9.23339 c -0.2944,0 -0.5376,-0.2419 -0.5376,-0.5376 v -0.3261 c 0,-0.2957 0.2419,-0.5376 0.5376,-0.5376 z m 0,7.77561 h 9.23339 c 0.2957,0 0.5376,0.2432 0.5376,0.5376 v 0.3261 c 0,0.2945 -0.24321,0.5376 -0.5376,0.5376 h -9.23339 c -0.2944,0 -0.5376,-0.2419 -0.5376,-0.5376 v -0.3261 c 0,-0.2957 0.2419,-0.5376 0.5376,-0.5376 z m -50.82692,0 h 9.2335 c 0.29563,0 0.53763,0.2432 0.53763,0.5376 v 0.3261 c 0,0.2945 -0.2432,0.5376 -0.53763,0.5376 h -9.2335 c -0.29439,0 -0.5376,-0.2419 -0.5376,-0.5376 v -0.3261 c 0,-0.2957 0.24201,-0.5376 0.5376,-0.5376 z m 65.5901,9.05489 c 0,0.98559 -0.80638,1.792 -1.79197,1.792 h -16.70893 c -0.98559,0 -1.79197,-0.80641 -1.79197,-1.792 0,-6.90559 0,-3.77321 0,-10.63019 h 20.29287 c 0,12.23589 0,-1.71591 0,10.63019 z m -50.82688,-12.05259 v -4.65631 c 0,-0.98559 -0.80641,-1.792 -1.792,-1.792 h -16.7089 c -0.98559,0 -1.792,0.80641 -1.792,1.792 v 4.65631 z m 50.82688,0 v -4.65631 c 0,-0.98559 -0.80638,-1.792 -1.79197,-1.792 h -16.70893 c -0.98559,0 -1.79197,0.80641 -1.79197,1.792 v 4.65631 z"
       style="fill:none;stroke:#006b2b;stroke-width:0.499992;stroke-linecap:butt;stroke-linejoin:miter;stroke-miterlimit:22.9256;stroke-dasharray:none;stroke-opacity:1"
       id="path864" />
    <path
       d="m 167.67479,129.14764 h 16.70893 c 0.98559,0 1.79197,0.80638 1.79197,1.79201 v 16.2348 c 0,0.98559 -0.80638,1.79197 -1.79197,1.79197 h -16.70893 c -0.98559,0 -1.79197,-0.80638 -1.79197,-1.79197 v -16.2348 c 0,-0.98563 0.80638,-1.79201 1.79197,-1.79201 z m 3.73772,16.37108 h 9.23339 c 0.2957,0 0.5376,0.2432 0.5376,0.5376 v 0.32621 c 0,0.29439 -0.24321,0.5376 -0.5376,0.5376 h -9.23339 c -0.2944,0 -0.5376,-0.2419 -0.5376,-0.5376 v -0.32621 c 0,-0.2956 0.2419,-0.5376 0.5376,-0.5376 z"
       style="fill:none;stroke:#006b2b;stroke-width:0.499992;stroke-linecap:butt;stroke-linejoin:miter;stroke-miterlimit:22.9256;stroke-dasharray:none;stroke-opacity:1"
       id="path866" />
    <path
       d="m 54.225694,16.760548 17.249316,9.958881 c 1.210804,0.6991 1.903695,1.899391 1.903695,3.297414 v 19.917692 c 0,1.398094 -0.692891,2.598385 -1.903695,3.297414 l -17.249316,9.958987 c -1.210769,0.698994 -2.596797,0.698994 -3.807495,0 L 33.168918,53.231949 C 31.958114,52.53292 31.265117,51.332629 31.265117,49.934535 V 30.016843 c 0,-1.398023 0.692997,-2.598314 1.903801,-3.297414 l 17.249281,-9.958881 c 1.210698,-0.699029 2.596726,-0.699029 3.807495,0 z m -1.359782,2.355286 c -0.3689,-0.213007 -0.718996,-0.213007 -1.087896,0 L 34.5287,29.07475 c -0.369006,0.212972 -0.543878,0.516079 -0.543878,0.942093 v 19.917692 c 0,0.426085 0.174872,0.729086 0.543878,0.942199 l 17.249316,9.958916 c 0.3689,0.212972 0.718996,0.212972 1.087896,0 l 17.249281,-9.958916 c 0.368899,-0.213113 0.543912,-0.516114 0.543912,-0.942199 V 30.016843 c 0,-0.426014 -0.175013,-0.729121 -0.543912,-0.942093 z"
       style="fill:#006b2b;fill-opacity:1;fill-rule:evenodd;stroke:none;stroke-width:0.352778"
       id="path868" />
    <path
       d="m 39.424126,30.95883 v 15.713498 c 0,0.409999 0.130775,0.722101 0.332493,0.931898 0.160691,0.167323 0.370699,0.283916 0.599299,0.343994 0.232587,0.06121 0.478896,0.06251 0.707708,-0.0018 0.28,-0.07839 0.538974,-0.263807 0.714586,-0.567902 0.01379,-0.02388 0.02829,-0.0472 0.04339,-0.06988 l 13.607803,-23.5694 2.347806,1.349198 -13.610589,23.574198 c -0.0127,0.02551 -0.02611,0.05069 -0.0406,0.07571 -0.5582,0.966682 -1.403809,1.562277 -2.329427,1.821498 -0.698288,0.195474 -1.439474,0.194275 -2.131271,0.01221 -0.695996,-0.183233 -1.347929,-0.551109 -1.863514,-1.087614 -0.665515,-0.692397 -1.097386,-1.643486 -1.097386,-2.812309 V 30.958654 h 2.719705 z"
       style="fill:#6e6e6e;fill-opacity:1;fill-rule:nonzero;stroke:none;stroke-width:0.352778"
       id="path870" />
    <path
       d="M 46.866608,54.86284 60.517909,31.218228 c 0.560599,-0.971091 1.405996,-1.568309 2.329285,-1.826789 0.6985,-0.195616 1.439616,-0.194416 2.131413,-0.01221 0.695819,0.183091 1.347894,0.551109 1.863514,1.087614 0.665479,0.692396 1.097279,1.643379 1.097279,2.812273 v 15.713498 c 0,0.751029 -0.608788,1.359818 -1.359781,1.359818 -0.04039,0 -0.0804,-0.0018 -0.120015,-0.0053 l -9.051396,-2.12e-4 v -2.70891 l 7.811593,1.06e-4 V 33.27912 c 0,-0.410069 -0.13088,-0.722171 -0.332493,-0.931968 -0.160796,-0.167217 -0.370804,-0.283704 -0.599299,-0.343923 -0.232692,-0.06121 -0.478895,-0.06258 -0.707813,0.0014 -0.282293,0.07909 -0.541478,0.262996 -0.714481,0.562681 L 49.214521,56.211933 46.866608,54.862735 Z"
       style="fill:#6e6e6e;fill-opacity:1;fill-rule:nonzero;stroke:none;stroke-width:0.352778"
       id="path872" />
    <path
       d="m 85.331309,44.154236 v -2.906501 h 5.783192 v 8.416996 c -0.533894,0.1385 -1.616392,0.286702 -3.247496,0.444888 -1.631209,0.158326 -2.812485,0.237313 -3.544111,0.237313 -3.084301,0 -5.209787,-0.850088 -6.376282,-2.550513 -1.166601,-1.700283 -1.749919,-4.364566 -1.749919,-7.992674 0,-3.628002 0.598206,-6.272494 1.794404,-7.933407 1.196199,-1.660808 3.267217,-2.491105 6.213228,-2.491105 2.291574,0 3.712775,0 6.004384,0 l -0.0611,2.955219 c -3.068602,-0.05722 -3.689385,-0.01923 -5.587506,-0.01923 -1.89798,0 -3.197895,0.533823 -3.899782,1.601505 -0.702028,1.067611 -1.052901,3.044895 -1.052901,5.931499 0,2.88671 0.331082,4.878705 0.993493,5.976021 0.662411,1.09728 2.001908,1.64599 4.018598,1.64599 1.443284,0 2.520808,-0.08911 3.232714,-0.266912 V 44.154236 Z M 142.16381,32.319353 h -13.66679 v -2.991626 h 13.66679 z M 108.22309,50.346932 V 39.84823 h 2.9917 V 50.346932 Z M 92.890914,39.863153 c 0.0062,-2.534814 0.271709,-5.850431 1.804493,-7.978634 1.202902,-1.670191 3.285808,-2.505181 6.248613,-2.505181 h 5.92568 c 2.16122,-0.0014 3.5978,0.920115 4.66291,2.784793 l 7.89411,13.820704 c 1.4581,2.552806 3.41369,1.54051 3.41369,-1.238709 V 29.379233 h 2.99169 v 15.366893 c 0,2.340399 -1.0263,4.868404 -3.46551,5.533108 -2.32907,0.634612 -4.41237,-0.857991 -5.53417,-2.82201 l -7.89421,-13.820775 c -0.49371,-0.864517 -0.96919,-1.275398 -1.98639,-1.275398 -1.88722,-0.0218 -3.7635,-0.029 -5.65001,-0.029 -1.908814,0 -3.216209,0.536893 -3.922117,1.610466 -0.702169,1.068317 -1.055088,3.041932 -1.058686,5.920634 0.0036,2.878667 0.356517,4.852282 1.058686,5.920599 0.705908,1.073573 2.013303,1.610501 3.922117,1.610501 1.90891,0 2.53319,0.03817 5.61929,-0.01933 l 0.0614,2.972011 c -2.3047,0 -3.73391,0 -6.0385,0 -2.962805,0 -5.045711,-0.83499 -6.248613,-2.505286 -1.532784,-2.128097 -1.798285,-5.44382 -1.804493,-7.978493 z M 105.4727,38.456346 h -6.645877 v 2.783804 h 6.645877 z m 37.71882,9.747779 c -0.48313,1.178419 -1.9601,2.142807 -4.43572,2.142807 h -10.25878 v -2.912604 c 3.18329,0.100613 8.64359,-0.0061 10.3009,-0.04769 2.62819,-0.06579 2.42658,-5.874597 0,-6.11311 -1.6498,-0.162101 -7.11761,-0.148202 -10.3009,-0.0478 V 38.31323 h 10.25878 c 2.476,0 3.7968,1.049796 4.43572,2.414728 0.93087,1.989279 0.91147,5.252685 0,7.476173"
       style="fill:#6e6e6e;fill-opacity:1;fill-rule:nonzero;stroke:none;stroke-width:0.352778"
       id="path874" />
    <path
       d="m 140.93649,54.998448 13.6513,-23.644612 c 0.5606,-0.971092 1.406,-1.568309 2.32933,-1.826789 0.6986,-0.195616 1.43968,-0.194416 2.13137,-0.01221 0.69582,0.183092 1.34793,0.55111 1.86352,1.087579 0.66551,0.692432 1.09731,1.643415 1.09731,2.812309 v 15.713498 c 0,0.750993 -0.60882,1.359817 -1.35982,1.359817 -0.0404,0 -0.0804,-0.0018 -0.12001,-0.0053 l -9.0514,-2.12e-4 v -2.70891 l 7.81163,1.06e-4 V 33.414728 c 0,-0.410104 -0.13091,-0.722207 -0.33253,-0.932003 -0.16079,-0.167182 -0.3708,-0.283704 -0.59929,-0.343888 -0.2327,-0.06121 -0.4789,-0.06251 -0.70778,0.0014 -0.28233,0.07913 -0.54152,0.263031 -0.71452,0.562716 l -13.65119,23.644612 -2.34792,-1.349198 z"
       style="fill:#006b2b;fill-opacity:1;fill-rule:nonzero;stroke:none;stroke-width:0.352778"
       id="path876" />
    <path
       d="m 179.1933,48.204231 c -0.48309,1.178418 -1.9601,2.142913 -4.43568,2.142913 H 164.4988 V 47.43454 c 3.1834,0.100506 8.64369,-0.0062 10.3009,-0.0478 2.62809,-0.06579 2.42662,-5.874597 0,-6.11311 -1.6498,-0.162101 -7.1175,-0.148308 -10.3009,-0.04769 v -2.91261 h 10.25882 c 2.476,0 3.79687,1.04969 4.43568,2.414693 0.93091,1.989314 0.91151,5.252826 0,7.476208 z M 178.16559,32.319424 H 164.4988 v -2.991591 h 13.66679 z"
       style="fill:#6e6e6e;fill-opacity:1;fill-rule:nonzero;stroke:none;stroke-width:0.352778"
       id="path878" />
    <path
       d="m 22.118507,266.69132 h 16.383811 c 0.966399,0 1.75708,-0.79068 1.75708,-1.75718 v -4.3796 H 20.361427 v 4.3796 c 0,0.9665 0.790681,1.75718 1.75708,1.75718 z m 8.191888,-10.83148 c 0.551921,0 0.999419,0.44757 0.999419,0.99949 0,0.55189 -0.447498,0.99939 -0.999419,0.99939 -0.551886,0 -0.99949,-0.4475 -0.99949,-0.99939 0,-0.55192 0.447604,-0.99949 0.99949,-0.99949 z m 0,6.67149 c 0.551921,0 0.999419,0.4475 0.999419,0.99938 0,0.55193 -0.447498,0.99953 -0.999419,0.99953 -0.551886,0 -0.99949,-0.4476 -0.99949,-0.99953 0,-0.55188 0.447604,-0.99938 0.99949,-0.99938 z m 0,-13.63348 c 0.551921,0 0.999419,0.44749 0.999419,0.99938 0,0.55189 -0.447498,0.99949 -0.999419,0.99949 -0.551886,0 -0.99949,-0.4476 -0.99949,-0.99949 0,-0.55189 0.447604,-0.99938 0.99949,-0.99938 z m 49.73521,0 c 0.55192,0 0.999419,0.44749 0.999419,0.99938 0,0.55189 -0.447499,0.99949 -0.999419,0.99949 -0.551886,0 -0.99949,-0.4476 -0.99949,-0.99949 0,-0.55189 0.447604,-0.99938 0.99949,-0.99938 z m 0,13.63348 c 0.55192,0 0.999419,0.4475 0.999419,0.99938 0,0.55193 -0.447499,0.99953 -0.999419,0.99953 -0.551886,0 -0.99949,-0.4476 -0.99949,-0.99953 0,-0.55188 0.447604,-0.99938 0.99949,-0.99938 z m 0,-6.67149 c 0.55192,0 0.999419,0.44757 0.999419,0.99949 0,0.55189 -0.447499,0.99939 -0.999419,0.99939 -0.551886,0 -0.99949,-0.4475 -0.99949,-0.99939 0,-0.55192 0.447604,-0.99949 0.99949,-0.99949 z m -39.786207,3.3001 v -4.64922 H 20.361427 v 4.64922 z m 0,-6.04382 v -4.56569 c 0,-0.9664 -0.790681,-1.75719 -1.75708,-1.75719 H 22.118507 c -0.966399,0 -1.75708,0.79079 -1.75708,1.75719 v 4.56569 z m 31.696907,13.5752 h 16.383811 c 0.966399,0 1.75708,-0.79068 1.75708,-1.75718 v -4.3796 H 70.199224 v 4.3796 c 0,0.9665 0.790681,1.75718 1.757081,1.75718 z m 18.140891,-7.53138 v -4.64922 H 70.199224 v 4.64922 z m 0,-6.04382 v -4.56569 c 0,-0.9664 -0.790681,-1.75719 -1.75708,-1.75719 H 71.956305 c -0.9664,0 -1.757081,0.79079 -1.757081,1.75719 v 4.56569 z"
       style="fill:#9c0b00;fill-opacity:1;fill-rule:evenodd;stroke:none;stroke-width:0.352778"
       id="path880" />
    <path
       d="m 47.037494,266.33981 c -1.936186,0 -3.514196,-1.57797 -3.514196,-3.51419 0,-4.90259 0,-10.21027 0,-14.27508 0,-0.9664 0.790716,-1.75712 1.757116,-1.75712 5.461105,0 14.436689,0 19.898007,0 0.966399,0 1.75708,0.79072 1.75708,1.75712 0,3.68561 0,9.77159 0,14.27508 0,1.93622 -1.578081,3.51419 -3.514196,3.51419 -5.461388,0 -10.922494,0 -16.383811,0 z m 0.317218,-17.52088 c 0.736706,0 1.334099,0.59739 1.334099,1.3341 0,0.73681 -0.597393,1.3342 -1.334099,1.3342 -0.736812,0 -1.334206,-0.59739 -1.334206,-1.3342 0,-0.73671 0.597394,-1.3341 1.334206,-1.3341 z m 5.206082,0 c 0.736812,0 1.334206,0.59739 1.334206,1.3341 0,0.73681 -0.597394,1.3342 -1.334206,1.3342 -0.73667,0 -1.334099,-0.59739 -1.334099,-1.3342 0,-0.73671 0.597429,-1.3341 1.334099,-1.3341 z m 5.206013,0 c 0.736811,0 1.334205,0.59739 1.334205,1.3341 0,0.73681 -0.597394,1.3342 -1.334205,1.3342 -0.736706,0 -1.3341,-0.59739 -1.3341,-1.3342 0,-0.73671 0.597394,-1.3341 1.3341,-1.3341 z m 5.206188,0 c 0.736812,0 1.334206,0.59739 1.334206,1.3341 0,0.73681 -0.597394,1.3342 -1.334206,1.3342 -0.736671,0 -1.33417,-0.59739 -1.33417,-1.3342 0,-0.73671 0.597499,-1.3341 1.33417,-1.3341 z m -16.090794,5.67559 H 63.57621 c 0.289983,0 0.527191,0.23922 0.527191,0.5272 v 0.2783 c 0,0.28801 -0.239183,0.52712 -0.527191,0.52712 H 46.882201 c -0.288008,0 -0.527191,-0.23721 -0.527191,-0.52712 v -0.2783 c 0,-0.28988 0.237208,-0.5272 0.527191,-0.5272 z m 0.155293,10.08821 c 5.461106,0 10.922423,0 16.383811,0 0.966399,0 1.757116,-0.79071 1.757116,-1.75711 0,-5.46118 0,-2.3126 0,-7.77388 0,-0.9664 -0.790717,-1.75712 -1.757116,-1.75712 -5.461388,0 -10.922705,0 -16.383811,0 -0.966399,0 -1.75708,0.79072 -1.75708,1.75712 0,5.46128 0,2.3127 0,7.77388 0,0.9664 0.790681,1.75711 1.75708,1.75711"
       style="fill:#9c0b01;fill-opacity:1;fill-rule:evenodd;stroke:none;stroke-width:0.352778"
       id="path882" />
    <path
       d="m 52.976896,215.74774 h 4.504901 c 0.290019,0 0.527227,0.23717 0.527227,0.52709 v 12.18081 l 9.356971,5.94039 c 0.42351,0.26889 0.249908,0.78479 -0.121073,0.78479 H 43.213806 c -0.498792,0 -0.470499,-0.56299 -0.225813,-0.71829 l 9.461818,-6.00689 v -12.18081 c 0,-0.28992 0.237207,-0.52709 0.527085,-0.52709 z m 2.252521,16.28638 c 0.551886,0 0.999384,0.4476 0.999384,0.99952 0,0.55189 -0.447498,0.99939 -0.999384,0.99939 -0.551921,0 -0.999525,-0.4475 -0.999525,-0.99939 0,-0.55192 0.447604,-0.99952 0.999525,-0.99952 z m 5.798503,0 c 0.551885,0 0.999384,0.4476 0.999384,0.99952 0,0.55189 -0.447499,0.99939 -0.999384,0.99939 -0.551921,0 -0.999526,-0.4475 -0.999526,-0.99939 0,-0.55192 0.447605,-0.99952 0.999526,-0.99952 z m -11.421322,0 c 0.551921,0 0.99942,0.4476 0.99942,0.99952 0,0.55189 -0.447499,0.99939 -0.99942,0.99939 -0.551885,0 -0.99949,-0.4475 -0.99949,-0.99939 0,-0.55192 0.447605,-0.99952 0.99949,-0.99952"
       style="fill:#9c0b00;fill-opacity:1;fill-rule:evenodd;stroke:none;stroke-width:0.352778"
       id="path884" />
    <path
       d="m 20.361215,272.64882 h 4.244199 v 0.30272 h -1.410088 l 2.302898,5.59378 h 0.02699 l 2.131096,-5.59378 h -1.4351 v -0.30272 h 3.143497 v 0.30272 h -1.355796 l -2.980902,7.81219 H 24.84961 l -3.297202,-7.81219 h -1.19119 z m 13.096205,5.4585 h -2.820494 l -0.908509,2.17201 h 1.642887 v 0.30082 h -3.217792 v -0.30082 h 1.224703 l 3.238394,-7.81431 h 0.203306 l 3.105397,7.81431 h 1.192882 v 0.30082 h -4.230299 v -0.30082 h 1.434924 z m -2.696105,-0.30078 h 2.576301 l -1.252008,-3.1755 h -0.02491 z m 12.621401,0.1191 h -1.50502 v -0.3029 h 4.596518 v 0.3029 h -1.285911 c 0,1.01328 -0.363678,1.73799 -1.091494,2.17808 -0.727604,0.44002 -1.489216,0.66001 -2.284589,0.66001 -1.159616,0 -2.126721,-0.41381 -2.899621,-1.24139 -0.772795,-0.8297 -1.159405,-1.79669 -1.159405,-2.90491 0,-1.12441 0.3955,-2.09529 1.186604,-2.91888 0.788599,-0.82162 1.773802,-1.23353 2.951409,-1.23353 0.610094,0 1.193306,0.15949 1.749108,0.47442 0.167287,0.0949 0.284585,0.14129 0.350308,0.14129 0.142381,0 0.282575,-0.113 0.424674,-0.33701 h 0.296121 l 0.0926,2.15381 h -0.336515 c -0.366289,-1.42109 -1.233981,-2.12961 -2.601207,-2.12961 -0.711976,0 -1.229289,0.14323 -1.556985,0.42792 -0.325614,0.28659 -0.526591,0.64798 -0.599016,1.082 -0.07218,0.436 -0.108374,1.05781 -0.108374,1.86729 0,1.4533 0.05429,2.41829 0.160585,2.89059 0.108197,0.47452 0.329812,0.82981 0.666609,1.068 0.334398,0.23813 0.745772,0.35722 1.231582,0.35722 0.388691,0 0.734519,-0.0706 1.034909,-0.21191 0.302789,-0.14122 0.492689,-0.35331 0.569489,-0.63588 0.0768,-0.28251 0.117616,-0.70252 0.117616,-1.26161 z m 7.050793,-4.9741 v 3.39951 h 0.799994 c 0.282399,0 0.522006,-0.0242 0.718503,-0.0727 0.196815,-0.0504 0.372992,-0.18362 0.529096,-0.3998 0.158115,-0.21781 0.246098,-0.55711 0.268817,-1.01731 h 0.343499 v 3.35912 h -0.343499 c -0.03619,-0.63793 -0.174096,-1.05992 -0.413597,-1.26161 -0.241829,-0.20401 -0.608013,-0.3049 -1.102819,-0.3049 h -0.799994 v 3.62549 h 1.805587 c 1.026019,0 1.733409,-0.19381 2.128908,-0.57728 0.395394,-0.38562 0.63052,-0.97713 0.704991,-1.77641 h 0.338914 l -0.08569,2.65451 h -7.873506 v -0.30082 h 1.4103 v -7.32779 h -1.4103 v -0.30272 h 7.547892 l 0.151519,2.11751 h -0.336727 c -0.115288,-0.64191 -0.350202,-1.10631 -0.70739,-1.38881 -0.359198,-0.28469 -0.953593,-0.42598 -1.78749,-0.42598 z m 14.185194,0 v 7.81219 h -0.271286 l -5.846092,-7.84849 h -0.02491 v 7.36409 h 1.502798 v 0.30082 H 56.81981 v -0.30082 h 1.31759 v -7.32779 h -1.410194 v -0.30272 h 3.389806 l 4.137801,5.55932 h 0.02709 v -5.2566 h -1.46879 v -0.30272 h 3.150376 v 0.30272 z m 7.972813,-0.39162 0.04078,2.05902 h -0.311891 c -0.440513,-1.23341 -1.220293,-1.85102 -2.336588,-1.85102 -0.619195,0 -1.098409,0.15342 -1.439615,0.45812 -0.343606,0.3049 -0.51301,0.6218 -0.51301,0.94879 0,0.30279 0.142205,0.56131 0.427002,0.7753 0.284904,0.21192 0.804616,0.3774 1.559313,0.49438 0.75491,0.11512 1.328914,0.2564 1.724414,0.42401 0.395393,0.1675 0.727674,0.4481 0.998996,0.83781 0.270898,0.38961 0.406682,0.83771 0.406682,1.34228 0,0.77721 -0.282505,1.42332 -0.849701,1.94003 -0.567407,0.51679 -1.270176,0.77509 -2.108588,0.77509 -0.684706,0 -1.36719,-0.22599 -2.047416,-0.68019 l -0.621383,0.49661 h -0.232904 v -2.21862 H 67.5723 c 0.26222,0.6985 0.62611,1.22329 1.093999,1.57459 0.467713,0.34932 0.978323,0.52482 1.536594,0.52482 0.551427,0 1.057804,-0.16139 1.518709,-0.48651 0.461009,-0.32491 0.69162,-0.73681 0.69162,-1.23331 0,-0.4179 -0.160619,-0.76909 -0.479213,-1.0559 -0.320887,-0.2866 -0.838517,-0.48229 -1.556985,-0.5914 -0.716421,-0.10897 -1.267812,-0.2341 -1.652023,-0.37938 -0.384104,-0.1434 -0.711799,-0.3938 -0.985308,-0.75102 -0.273368,-0.35529 -0.411268,-0.751 -0.411268,-1.18499 0,-0.59951 0.2395,-1.13439 0.716385,-1.60482 0.474416,-0.47247 1.122998,-0.70859 1.939008,-0.70859 0.684707,0 1.321788,0.19382 1.913996,0.58142 0.162877,-0.13932 0.302895,-0.30082 0.422592,-0.48652 z m 6.926792,5.5474 h -2.8206 l -0.908191,2.17201 h 1.642886 v 0.30082 H 74.2144 v -0.30082 h 1.224703 l 3.238394,-7.81431 h 0.203518 l 3.105079,7.81431 h 1.19313 v 0.30082 h -4.230405 v -0.30082 h 1.434782 z m -2.69621,-0.30078 h 2.576301 l -1.251691,-3.1755 h -0.02519 z m 12.718626,-5.24662 0.04078,2.05902 h -0.311891 c -0.440513,-1.23341 -1.220293,-1.85102 -2.336623,-1.85102 -0.619196,0 -1.098374,0.15342 -1.43958,0.45812 -0.343606,0.3049 -0.512904,0.6218 -0.512904,0.94879 0,0.30279 0.142099,0.56131 0.426896,0.7753 0.284904,0.21192 0.804616,0.3774 1.559313,0.49438 0.75491,0.11512 1.328879,0.2564 1.724378,0.42401 0.395429,0.1675 0.72771,0.4481 0.999032,0.83781 0.270898,0.38961 0.406682,0.83771 0.406682,1.34228 0,0.77721 -0.282505,1.42332 -0.849701,1.94003 -0.567408,0.51679 -1.270211,0.77509 -2.108482,0.77509 -0.684812,0 -1.367331,-0.22599 -2.047416,-0.68019 l -0.621701,0.49661 h -0.232692 v -2.21862 h 0.284692 c 0.262184,0.6985 0.62611,1.22329 1.093999,1.57459 0.467713,0.34932 0.978288,0.52482 1.536594,0.52482 0.551392,0 1.057804,-0.16139 1.518497,-0.48651 0.461221,-0.32491 0.691797,-0.73681 0.691797,-1.23331 0,-0.4179 -0.160584,-0.76909 -0.479178,-1.0559 -0.320922,-0.2866 -0.838518,-0.48229 -1.55702,-0.5914 -0.716386,-0.10897 -1.267777,-0.2341 -1.651988,-0.37938 -0.384104,-0.1434 -0.711799,-0.3938 -0.985308,-0.75102 -0.273403,-0.35529 -0.411304,-0.751 -0.411304,-1.18499 0,-0.59951 0.239501,-1.13439 0.716421,-1.60482 0.474381,-0.47247 1.122998,-0.70859 1.938973,-0.70859 0.684706,0 1.321929,0.19382 1.914031,0.58142 0.162877,-0.13932 0.302895,-0.30082 0.422592,-0.48652 z"
       style="fill:#6e6e6e;fill-opacity:1;fill-rule:nonzero;stroke:none;stroke-width:0.352778"
       id="path886" />
    <text
       style="font-variant:normal;font-weight:300;font-size:6.98006px;font-family:Klavika;-inkscape-font-specification:Klavika-Light;writing-mode:lr-tb;fill:#6e6e6e;fill-opacity:1;fill-rule:nonzero;stroke:none;stroke-width:0.352778"
       id="text890"
       x="19.5306"
       y="242.95851"><tspan
         x="19.5306 21.122053 24.758665 28.339437 29.930891 33.064938 34.656391 38.237164 41.873775 45.259106 46.850559 48.442013 49.977627 53.523495 56.908829 58.500282"
         y="242.95851"
         sodipodi:role="line"
         id="tspan888"
         style="stroke-width:0.352778">individuali bald</tspan></text>
    <text
       style="font-variant:normal;font-weight:300;font-size:6.98006px;font-family:Klavika;-inkscape-font-specification:Klavika-Light;writing-mode:lr-tb;fill:#6e6e6e;fill-opacity:1;fill-rule:nonzero;stroke:none;stroke-width:0.352778"
       id="text894"
       x="62.081383"
       y="242.95851"><tspan
         x="62.081383 65.717995 67.253609 70.79937 74.1847 79.901367 83.000519 86.546387"
         y="242.95851"
         sodipodi:role="line"
         id="tspan892"
         style="stroke-width:0.352778">ų gamyba</tspan></text>
    <path
       d="m 142.26142,278.85295 c -1.9746,0 -3.58401,-1.60941 -3.58401,-3.58401 0,-4.99982 0,-10.41291 0,-14.5583 0,-0.98562 0.80638,-1.792 1.79201,-1.792 5.56948,0 14.72318,0 20.2929,0 0.98559,0 1.79197,0.80638 1.79197,1.792 0,3.75868 0,9.96548 0,14.5583 0,1.9746 -1.60937,3.58401 -3.58397,3.58401 -5.56973,0 -11.13921,0 -16.7089,0 z m 0.3235,-17.86873 c 0.75138,0 1.36059,0.60932 1.36059,1.3607 0,0.75142 -0.60921,1.3607 -1.36059,1.3607 -0.75142,0 -1.3607,-0.60928 -1.3607,-1.3607 0,-0.75138 0.60928,-1.3607 1.3607,-1.3607 z m 5.30948,0 c 0.75142,0 1.36059,0.60932 1.36059,1.3607 0,0.75142 -0.60917,1.3607 -1.36059,1.3607 -0.75138,0 -1.3607,-0.60928 -1.3607,-1.3607 0,-0.75138 0.60932,-1.3607 1.3607,-1.3607 z m 5.30931,0 c 0.75141,0 1.36059,0.60932 1.36059,1.3607 0,0.75142 -0.60918,1.3607 -1.36059,1.3607 -0.75142,0 -1.3607,-0.60928 -1.3607,-1.3607 0,-0.75138 0.60928,-1.3607 1.3607,-1.3607 z m 5.30951,0 c 0.75138,0 1.3606,0.60932 1.3606,1.3607 0,0.75142 -0.60922,1.3607 -1.3606,1.3607 -0.75141,0 -1.3607,-0.60928 -1.3607,-1.3607 0,-0.75138 0.60929,-1.3607 1.3607,-1.3607 z m -16.4102,5.78842 h 17.02538 c 0.2957,0 0.5376,0.24391 0.5376,0.53759 v 0.28381 c 0,0.29369 -0.24388,0.5376 -0.5376,0.5376 h -17.02538 c -0.29372,0 -0.53763,-0.2419 -0.53763,-0.5376 v -0.28381 c 0,-0.29569 0.2419,-0.53759 0.53763,-0.53759 z m 0.1584,10.2883 c 5.56948,0 11.13917,0 16.7089,0 0.98559,0 1.792,-0.80641 1.792,-1.792 0,-5.56952 0,-2.35839 0,-7.92812 0,-0.98559 -0.80641,-1.792 -1.792,-1.792 -5.56973,0 -11.13942,0 -16.7089,0 -0.98562,0 -1.792,0.80641 -1.792,1.792 0,5.56973 0,2.3586 0,7.92812 0,0.98559 0.80638,1.792 1.792,1.792 z"
       style="fill:none;stroke:#9c0b00;stroke-width:0.499992;stroke-linecap:butt;stroke-linejoin:miter;stroke-miterlimit:22.9256;stroke-dasharray:none;stroke-opacity:1"
       id="path896" />
    <path
       d="m 148.31872,214.35445 h 4.5943 c 0.2957,0 0.5376,0.2419 0.5376,0.53759 v 12.42251 l 9.54278,6.05829 c 0.4318,0.27418 0.25481,0.80038 -0.12348,0.80038 h -24.508 c -0.50881,0 -0.47992,-0.57418 -0.23033,-0.73258 l 9.64953,-6.12609 v -12.42251 c 0,-0.29569 0.2419,-0.53759 0.5376,-0.53759 z m 2.29718,16.60959 c 0.56279,0 1.01932,0.45649 1.01932,1.01928 0,0.56292 -0.45653,1.01931 -1.01932,1.01931 -0.56289,0 -1.01928,-0.45639 -1.01928,-1.01931 0,-0.56279 0.45639,-1.01928 1.01928,-1.01928 z m 5.91362,0 c 0.56278,0 1.01917,0.45649 1.01917,1.01928 0,0.56292 -0.45639,1.01931 -1.01917,1.01931 -0.56293,0 -1.01932,-0.45639 -1.01932,-1.01931 0,-0.56279 0.45639,-1.01928 1.01932,-1.01928 z m -11.64802,0 c 0.56289,0 1.01932,0.45649 1.01932,1.01928 0,0.56292 -0.45643,1.01931 -1.01932,1.01931 -0.56289,0 -1.01928,-0.45639 -1.01928,-1.01931 0,-0.56279 0.45639,-1.01928 1.01928,-1.01928 z"
       style="fill:none;stroke:#9c0b00;stroke-width:0.499992;stroke-linecap:butt;stroke-linejoin:miter;stroke-miterlimit:22.9256;stroke-dasharray:none;stroke-opacity:1"
       id="path898" />
    <path
       d="m 115.05612,238.46504 h 4.3284 v 0.30868 h -1.43813 l 2.34862,5.70491 h 0.0276 l 2.17332,-5.70491 h -1.4635 v -0.30868 h 3.2059 v 0.30868 h -1.38271 l -3.0402,7.96721 h -0.1819 l -3.3626,-7.96721 h -1.21479 z m 13.35609,5.5668 h -2.87651 l -0.9265,2.21509 h 1.67552 v 0.30681 H 123.003 v -0.30681 h 1.24912 l 3.3026,-7.96939 h 0.20729 l 3.16699,7.96939 h 1.21659 v 0.30681 h -4.31419 v -0.30681 h 1.46332 z m -2.74969,-0.30681 h 2.62749 l -1.27681,-3.2385 h -0.0255 z m 12.87188,0.1215 h -1.5348 v -0.3089 h 4.68771 v 0.3089 h -1.31142 c 0,1.03349 -0.37098,1.77249 -1.11319,2.2214 -0.7421,0.4487 -1.5187,0.673 -2.32999,0.673 -1.18251,0 -2.1688,-0.422 -2.95709,-1.26602 -0.7881,-0.84617 -1.1824,-1.83229 -1.1824,-2.96248 0,-1.14671 0.4034,-2.13699 1.2102,-2.97688 0.8042,-0.83792 1.80898,-1.25801 3.00997,-1.25801 0.62223,0 1.21691,0.1627 1.78372,0.48391 0.1706,0.0967 0.2903,0.14407 0.3574,0.14407 0.1451,0 0.28811,-0.11529 0.4331,-0.34378 h 0.30191 l 0.0945,2.19668 h -0.34318 c -0.37359,-1.44939 -1.2585,-2.17188 -2.65289,-2.17188 -0.72612,0 -1.25363,0.14598 -1.58792,0.43628 -0.332,0.29231 -0.537,0.66089 -0.6108,1.10352 -0.0737,0.44457 -0.1106,1.0788 -0.1106,1.9044 0,1.48209 0.0554,2.46627 0.1638,2.94799 0.11042,0.4838 0.3363,0.84621 0.67991,1.0892 0.34099,0.24278 0.76048,0.36432 1.25599,0.36432 0.39642,0 0.74902,-0.0721 1.05551,-0.21611 0.30868,-0.14411 0.50239,-0.3604 0.58071,-0.64862 0.0784,-0.28808 0.11988,-0.71639 0.11988,-1.28658 z m 7.19081,-5.07281 v 3.467 h 0.8159 c 0.2879,0 0.53241,-0.0247 0.73268,-0.0742 0.2007,-0.0514 0.3804,-0.18719 0.53961,-0.40771 0.16129,-0.22218 0.251,-0.56818 0.27411,-1.03748 h 0.35038 v 3.42568 h -0.35038 c -0.0369,-0.65048 -0.17752,-1.08087 -0.42182,-1.28658 -0.24659,-0.2081 -0.61997,-0.3109 -1.12458,-0.3109 h -0.8159 v 3.69739 h 1.84139 c 1.04641,0 1.7678,-0.19769 2.17121,-0.58871 0.40319,-0.39328 0.643,-0.99649 0.71889,-1.81169 h 0.34572 l -0.0874,2.70721 h -8.02979 v -0.30681 h 1.43831 v -7.47321 h -1.43831 v -0.30868 h 7.69769 l 0.15451,2.1595 h -0.34339 c -0.11751,-0.65462 -0.35712,-1.12822 -0.7214,-1.41641 -0.36632,-0.2903 -0.9725,-0.43441 -1.82301,-0.43441 z m 14.46671,0 v 7.96721 h -0.27672 l -5.96209,-8.00428 h -0.0254 v 7.51028 h 1.53261 v 0.30681 h -3.2221 v -0.30681 h 1.34377 v -7.47321 h -1.43828 v -0.30868 h 3.45709 l 4.21999,5.66971 h 0.0276 v -5.36103 h -1.4979 v -0.30868 h 3.21278 v 0.30868 z m 8.13099,-0.39938 0.0416,2.09988 h -0.3181 c -0.44919,-1.2578 -1.2445,-1.88768 -2.38302,-1.88768 -0.63147,0 -1.12017,0.15639 -1.46819,0.46708 -0.35031,0.31101 -0.52299,0.63422 -0.52299,0.9677 0,0.30882 0.14489,0.57242 0.4354,0.79072 0.29051,0.21607 0.82059,0.38488 1.59018,0.50419 0.7699,0.1174 1.3553,0.26151 1.7587,0.4324 0.40323,0.17081 0.74211,0.45699 1.01872,0.8545 0.2764,0.39719 0.4149,0.85421 0.4149,1.36892 0,0.79258 -0.28822,1.45146 -0.8666,1.97848 -0.57869,0.52701 -1.2955,0.7904 -2.15039,0.7904 -0.69843,0 -1.39442,-0.2304 -2.08802,-0.6936 l -0.63391,0.50641 h -0.23738 v -2.26261 h 0.2903 c 0.2674,0.7123 0.63849,1.2476 1.11569,1.60581 0.477,0.35631 0.9978,0.53531 1.56711,0.53531 0.5623,0 1.0788,-0.16472 1.5488,-0.49622 0.47019,-0.3314 0.70531,-0.75138 0.70531,-1.25779 0,-0.4262 -0.16383,-0.78441 -0.48863,-1.07682 -0.32727,-0.29228 -0.85517,-0.49188 -1.58789,-0.60318 -0.7306,-0.11109 -1.293,-0.23869 -1.6849,-0.38689 -0.39169,-0.14623 -0.72591,-0.40161 -1.00471,-0.76592 -0.27887,-0.3623 -0.41949,-0.76592 -0.41949,-1.20851 0,-0.61151 0.24419,-1.1569 0.7306,-1.63668 0.4838,-0.48182 1.14519,-0.7227 1.97739,-0.7227 0.69843,0 1.34811,0.1977 1.95203,0.59299 0.16619,-0.1421 0.309,-0.30682 0.43099,-0.49619 z m 7.0642,5.6575 h -2.87651 l -0.92629,2.21509 h 1.67559 v 0.30681 h -3.28189 v -0.30681 h 1.24901 l 3.3027,-7.96939 h 0.20747 l 3.16682,7.96939 h 1.2168 v 0.30681 h -4.3144 v -0.30681 h 1.46328 z m -2.74962,-0.30681 h 2.62742 l -1.2766,-3.2385 h -0.0256 z m 12.97101,-5.35069 0.0416,2.09988 h -0.3181 c -0.4493,-1.2578 -1.2446,-1.88768 -2.38298,-1.88768 -0.63151,0 -1.12021,0.15639 -1.46819,0.46708 -0.35031,0.31101 -0.5231,0.63422 -0.5231,0.9677 0,0.30882 0.14499,0.57242 0.43547,0.79072 0.29051,0.21607 0.82053,0.38488 1.59022,0.50419 0.76979,0.1174 1.3553,0.26151 1.7587,0.4324 0.40319,0.17081 0.742,0.45699 1.01868,0.8545 0.27633,0.39719 0.4149,0.85421 0.4149,1.36892 0,0.79258 -0.28818,1.45146 -0.8666,1.97848 -0.57869,0.52701 -1.29547,0.7904 -2.15039,0.7904 -0.69839,0 -1.39439,-0.2304 -2.08809,-0.6936 l -0.63401,0.50641 h -0.23721 v -2.26261 h 0.2903 c 0.2673,0.7123 0.63853,1.2476 1.11573,1.60581 0.47699,0.35631 0.99769,0.53531 1.56708,0.53531 0.56232,0 1.07872,-0.16472 1.54862,-0.49622 0.47039,-0.3314 0.70548,-0.75138 0.70548,-1.25779 0,-0.4262 -0.16379,-0.78441 -0.4887,-1.07682 -0.3272,-0.29228 -0.8551,-0.49188 -1.58789,-0.60318 -0.7306,-0.11109 -1.29289,-0.23869 -1.68479,-0.38689 -0.39173,-0.14623 -0.72591,-0.40161 -1.00482,-0.76592 -0.2788,-0.3623 -0.41949,-0.76592 -0.41949,-1.20851 0,-0.61151 0.2443,-1.1569 0.7306,-1.63668 0.48391,-0.48182 1.1453,-0.7227 1.9775,-0.7227 0.69829,0 1.34811,0.1977 1.95199,0.59299 0.16612,-0.1421 0.309,-0.30682 0.43099,-0.49619 z"
       style="fill:#6e6e6e;fill-opacity:1;fill-rule:nonzero;stroke:none;stroke-width:0.352778"
       id="path900" />
    <text
       style="font-variant:normal;font-weight:300;font-size:7.1187px;font-family:Klavika;-inkscape-font-specification:Klavika-Light;writing-mode:lr-tb;fill:#6e6e6e;fill-opacity:1;fill-rule:nonzero;stroke:none;stroke-width:0.352778"
       id="text904"
       x="114.9106"
       y="254.53754"><tspan
         x="114.9106 116.53366 120.24251 123.8944 125.51746 128.71376 130.33682 133.98872 137.69757 141.15013 142.77321 144.39627 145.96239 149.57867 153.03125 154.65431"
         y="254.53754"
         sodipodi:role="line"
         id="tspan902"
         style="stroke-width:0.352778">individuali bald</tspan></text>
    <text
       style="font-variant:normal;font-weight:300;font-size:7.1187px;font-family:Klavika;-inkscape-font-specification:Klavika-Light;writing-mode:lr-tb;fill:#6e6e6e;fill-opacity:1;fill-rule:nonzero;stroke:none;stroke-width:0.352778"
       id="text908"
       x="158.30519"
       y="254.53754"><tspan
         x="158.30519 162.01404 163.58015 167.19629 170.64885 176.47906 179.63977 183.25607"
         y="254.53754"
         sodipodi:role="line"
         id="tspan906"
         style="stroke-width:0.352778">ų gamyba</tspan></text>
    <path
       d="m 116.84791,214.35445 h 16.7089 c 0.98559,0 1.792,0.80638 1.792,1.79197 v 16.23479 c 0,0.98563 -0.80641,1.79201 -1.792,1.79201 h -16.7089 c -0.98559,0 -1.792,-0.80638 -1.792,-1.79201 v -16.23479 c 0,-0.98559 0.80641,-1.79197 1.792,-1.79197 z m 3.73768,16.37107 h 9.2335 c 0.29563,0 0.53763,0.24321 0.53763,0.5376 v 0.32621 c 0,0.2944 -0.2432,0.5376 -0.53763,0.5376 h -9.2335 c -0.29439,0 -0.5376,-0.2419 -0.5376,-0.5376 v -0.32621 c 0,-0.29559 0.24201,-0.5376 0.5376,-0.5376 z"
       style="fill:none;stroke:#9c0b00;stroke-width:0.499992;stroke-linecap:butt;stroke-linejoin:miter;stroke-miterlimit:22.9256;stroke-dasharray:none;stroke-opacity:1"
       id="path910" />
    <path
       d="m 116.84791,279.21133 h 16.7089 c 0.98559,0 1.792,-0.80641 1.792,-1.792 0,-10.6311 0,0.35719 0,-10.63018 h -20.2929 c 0,6.82819 0,3.99997 0,10.63018 0,0.98559 0.80641,1.792 1.792,1.792 z m 3.73768,-18.6225 h 9.2335 c 0.29563,0 0.53763,0.2431 0.53763,0.5376 v 0.32611 c 0,0.29439 -0.2432,0.53759 -0.53763,0.53759 h -9.2335 c -0.29439,0 -0.5376,-0.2419 -0.5376,-0.53759 v -0.32611 c 0,-0.2957 0.24201,-0.5376 0.5376,-0.5376 z m 50.82692,0 h 9.23339 c 0.2957,0 0.5376,0.2431 0.5376,0.5376 v 0.32611 c 0,0.29439 -0.24321,0.53759 -0.5376,0.53759 h -9.23339 c -0.2944,0 -0.5376,-0.2419 -0.5376,-0.53759 v -0.32611 c 0,-0.2957 0.2419,-0.5376 0.5376,-0.5376 z m 0,7.77561 h 9.23339 c 0.2957,0 0.5376,0.24321 0.5376,0.5376 v 0.32611 c 0,0.2945 -0.24321,0.53759 -0.5376,0.53759 h -9.23339 c -0.2944,0 -0.5376,-0.2419 -0.5376,-0.53759 v -0.32611 c 0,-0.2957 0.2419,-0.5376 0.5376,-0.5376 z m -50.82692,0 h 9.2335 c 0.29563,0 0.53763,0.24321 0.53763,0.5376 v 0.32611 c 0,0.2945 -0.2432,0.53759 -0.53763,0.53759 h -9.2335 c -0.29439,0 -0.5376,-0.2419 -0.5376,-0.53759 v -0.32611 c 0,-0.2957 0.24201,-0.5376 0.5376,-0.5376 z m 65.5901,9.05489 c 0,0.98559 -0.80638,1.792 -1.79197,1.792 h -16.70893 c -0.98559,0 -1.79197,-0.80641 -1.79197,-1.792 0,-6.90559 0,-3.77321 0,-10.63018 h 20.29287 c 0,12.23588 0,-1.71591 0,10.63018 z m -50.82688,-12.05258 v -4.65632 c 0,-0.98559 -0.80641,-1.792 -1.792,-1.792 h -16.7089 c -0.98559,0 -1.792,0.80641 -1.792,1.792 v 4.65632 z m 50.82688,0 v -4.65632 c 0,-0.98559 -0.80638,-1.792 -1.79197,-1.792 h -16.70893 c -0.98559,0 -1.79197,0.80641 -1.79197,1.792 v 4.65632 z"
       style="fill:none;stroke:#9c0b00;stroke-width:0.499992;stroke-linecap:butt;stroke-linejoin:miter;stroke-miterlimit:22.9256;stroke-dasharray:none;stroke-opacity:1"
       id="path912" />
    <path
       d="m 167.67479,214.35445 h 16.70893 c 0.98559,0 1.79197,0.80638 1.79197,1.79197 v 16.23479 c 0,0.98563 -0.80638,1.79201 -1.79197,1.79201 h -16.70893 c -0.98559,0 -1.79197,-0.80638 -1.79197,-1.79201 v -16.23479 c 0,-0.98559 0.80638,-1.79197 1.79197,-1.79197 z m 3.73772,16.37107 h 9.23339 c 0.2957,0 0.5376,0.24321 0.5376,0.5376 v 0.32621 c 0,0.2944 -0.24321,0.5376 -0.5376,0.5376 h -9.23339 c -0.2944,0 -0.5376,-0.2419 -0.5376,-0.5376 v -0.32621 c 0,-0.29559 0.2419,-0.5376 0.5376,-0.5376 z"
       style="fill:none;stroke:#9c0b00;stroke-width:0.499992;stroke-linecap:butt;stroke-linejoin:miter;stroke-miterlimit:22.9256;stroke-dasharray:none;stroke-opacity:1"
       id="path914" />
    <path
       d="m 54.225694,72.105842 17.249316,9.958881 c 1.210804,0.6991 1.903695,1.899426 1.903695,3.297414 v 19.917693 c 0,1.39809 -0.692891,2.59842 -1.903695,3.29752 l -17.249316,9.95888 c -1.210769,0.69899 -2.596797,0.69899 -3.807495,0 l -17.249281,-9.95888 c -1.210804,-0.6991 -1.903801,-1.89943 -1.903801,-3.29752 V 85.362137 c 0,-1.397988 0.692997,-2.598314 1.903801,-3.297414 l 17.249281,-9.958881 c 1.210698,-0.698994 2.596726,-0.698994 3.807495,0 z m -1.359782,2.355285 c -0.3689,-0.213007 -0.718996,-0.213007 -1.087896,0 L 34.5287,84.420044 c -0.369006,0.213077 -0.543878,0.516078 -0.543878,0.942093 v 19.917693 c 0,0.42612 0.174872,0.72912 0.543878,0.9422 l 17.249316,9.95891 c 0.3689,0.21301 0.718996,0.21301 1.087896,0 l 17.249281,-9.95891 c 0.368899,-0.21308 0.543912,-0.51608 0.543912,-0.9422 V 85.362137 c 0,-0.426015 -0.175013,-0.729016 -0.543912,-0.942093 z"
       style="fill:#9c0b00;fill-opacity:1;fill-rule:evenodd;stroke:none;stroke-width:0.352778"
       id="path916" />
    <path
       d="m 39.424126,86.304124 v 15.713496 c 0,0.41 0.130775,0.72221 0.332493,0.9319 0.160691,0.16732 0.370699,0.28392 0.599299,0.34403 0.232587,0.0612 0.478896,0.0625 0.707708,-0.002 0.28,-0.0784 0.538974,-0.2638 0.714586,-0.5679 0.01379,-0.0239 0.02829,-0.0472 0.04339,-0.0699 l 13.607803,-23.569403 2.347806,1.349199 -13.610589,23.574194 c -0.0127,0.0255 -0.02611,0.0507 -0.0406,0.0757 -0.5582,0.96668 -1.403809,1.56228 -2.329427,1.8215 -0.698288,0.19558 -1.439474,0.19431 -2.131271,0.0122 -0.695996,-0.18319 -1.347929,-0.55111 -1.863514,-1.08761 -0.665515,-0.6924 -1.097386,-1.64349 -1.097386,-2.81231 V 86.303983 h 2.719705 z"
       style="fill:#6e6e6e;fill-opacity:1;fill-rule:nonzero;stroke:none;stroke-width:0.352778"
       id="path918" />
    <path
       d="M 46.866608,110.20813 60.517909,86.563521 c 0.560599,-0.971091 1.405996,-1.568203 2.329285,-1.826789 0.6985,-0.19558 1.439616,-0.19438 2.131413,-0.01221 0.695819,0.183092 1.347894,0.55111 1.863514,1.087614 0.665479,0.692397 1.097279,1.64338 1.097279,2.812309 v 15.713505 c 0,0.75099 -0.608788,1.35978 -1.359781,1.35978 -0.04039,0 -0.0804,-0.002 -0.120015,-0.005 l -9.051396,-1.1e-4 v -2.70898 l 7.811593,7e-5 V 88.624449 c 0,-0.410104 -0.13088,-0.722207 -0.332493,-0.932003 -0.160796,-0.167217 -0.370804,-0.283704 -0.599299,-0.343924 -0.232692,-0.06117 -0.478895,-0.06248 -0.707813,0.0014 -0.282293,0.07909 -0.541478,0.262995 -0.714481,0.56268 l -13.651194,23.644618 -2.347913,-1.3492 z"
       style="fill:#6e6e6e;fill-opacity:1;fill-rule:nonzero;stroke:none;stroke-width:0.352778"
       id="path920" />
    <path
       d="m 85.331309,99.499529 v -2.9065 h 5.783192 v 8.416991 c -0.533894,0.1385 -1.616392,0.28671 -3.247496,0.44493 -1.631209,0.15829 -2.812485,0.23728 -3.544111,0.23728 -3.084301,0 -5.209787,-0.85009 -6.376282,-2.55048 -1.166601,-1.70032 -1.749919,-4.364604 -1.749919,-7.992711 0,-3.628002 0.598206,-6.272495 1.794404,-7.933408 1.196199,-1.660807 3.267217,-2.491105 6.213228,-2.491105 2.291574,0 3.712775,0 6.004384,0 l -0.0611,2.95522 c -3.068602,-0.05722 -3.689385,-0.01923 -5.587506,-0.01923 -1.89798,0 -3.197895,0.533823 -3.899782,1.601505 -0.702028,1.067612 -1.052901,3.044896 -1.052901,5.9315 0,2.88671 0.331082,4.878709 0.993493,5.976019 0.662411,1.09728 2.001908,1.64599 4.018598,1.64599 1.443284,0 2.520808,-0.0891 3.232714,-0.26691 V 99.499529 Z M 142.16381,87.664647 h -13.66679 v -2.991626 h 13.66679 z M 108.22309,105.69223 V 95.193524 h 2.9917 V 105.69223 Z M 92.890914,95.208446 c 0.0062,-2.534814 0.271709,-5.850395 1.804493,-7.978527 1.202902,-1.670297 3.285808,-2.505287 6.248613,-2.505287 h 5.92568 c 2.16122,-0.0014 3.5978,0.920115 4.66291,2.784792 l 7.89411,13.820706 c 1.4581,2.5528 3.41369,1.54051 3.41369,-1.23871 V 84.724526 h 2.99169 v 15.366894 c 0,2.3404 -1.0263,4.8684 -3.46551,5.53311 -2.32907,0.63461 -4.41237,-0.85799 -5.53417,-2.82201 l -7.89421,-13.820778 c -0.49371,-0.864517 -0.96919,-1.275397 -1.98639,-1.275397 -1.88722,-0.0218 -3.7635,-0.029 -5.65001,-0.029 -1.908814,0 -3.216209,0.536892 -3.922117,1.610501 -0.702169,1.068281 -1.055088,3.041897 -1.058686,5.920598 0.0036,2.878702 0.356517,4.852286 1.058686,5.920606 0.705908,1.07357 2.013303,1.6105 3.922117,1.6105 1.90891,0 2.53319,0.0382 5.61929,-0.0193 l 0.0614,2.97198 c -2.3047,0 -3.73391,0 -6.0385,0 -2.962805,0 -5.045711,-0.83499 -6.248613,-2.50519 -1.532784,-2.1282 -1.798285,-5.443923 -1.804493,-7.978596 z M 105.4727,93.801639 h -6.645877 v 2.783805 h 6.645877 z m 37.71882,9.747781 c -0.48313,1.17842 -1.9601,2.14281 -4.43572,2.14281 h -10.25878 v -2.91261 c 3.18329,0.10061 8.64359,-0.006 10.3009,-0.0476 2.62819,-0.0659 2.42658,-5.8747 0,-6.113178 -1.6498,-0.162101 -7.11761,-0.148202 -10.3009,-0.0478 v -2.912534 h 10.25878 c 2.476,0 3.7968,1.049832 4.43572,2.414835 0.93087,1.989172 0.91147,5.252577 0,7.476067"
       style="fill:#6e6e6e;fill-opacity:1;fill-rule:nonzero;stroke:none;stroke-width:0.352778"
       id="path922" />
    <path
       d="m 140.93649,110.34374 13.6513,-23.644611 c 0.5606,-0.971091 1.406,-1.568203 2.32933,-1.826789 0.6986,-0.195615 1.43968,-0.194416 2.13137,-0.01221 0.69582,0.183092 1.34793,0.551109 1.86352,1.087614 0.66551,0.692397 1.09731,1.64338 1.09731,2.812274 v 15.713502 c 0,0.75103 -0.60882,1.35982 -1.35982,1.35982 -0.0404,0 -0.0804,-0.002 -0.12001,-0.005 l -9.0514,-1.1e-4 v -2.70902 l 7.81163,1.1e-4 V 88.760022 c 0,-0.410105 -0.13091,-0.722172 -0.33253,-0.932004 -0.16079,-0.167181 -0.3708,-0.283669 -0.59929,-0.343888 -0.2327,-0.06121 -0.4789,-0.06251 -0.70778,0.0014 -0.28233,0.07909 -0.54152,0.262996 -0.71452,0.562681 l -13.65119,23.644609 -2.34792,-1.34919 z"
       style="fill:#9c0b00;fill-opacity:1;fill-rule:nonzero;stroke:none;stroke-width:0.352778"
       id="path924" />
    <path
       d="m 179.1933,103.54952 c -0.48309,1.17842 -1.9601,2.14292 -4.43568,2.14292 H 164.4988 v -2.91261 c 3.1834,0.10051 8.64369,-0.006 10.3009,-0.0478 2.62809,-0.0658 2.42662,-5.874489 0,-6.113107 -1.6498,-0.162102 -7.1175,-0.148202 -10.3009,-0.0477 v -2.912604 h 10.25882 c 2.476,0 3.79687,1.049796 4.43568,2.414729 0.93091,1.989278 0.91151,5.252792 0,7.476172 z M 178.16559,87.664717 H 164.4988 v -2.991591 h 13.66679 z"
       style="fill:#6e6e6e;fill-opacity:1;fill-rule:nonzero;stroke:none;stroke-width:0.352778"
       id="path926" />
  </g>
</svg>
